<svg width="16" height="18" viewBox="0 0 16 18" fill="none" xmlns="http://www.w3.org/2000/svg">
<g clip-path="url(#clip0_1_1332)">
<g filter="url(#filter0_i_1_1332)">
<path fill-rule="evenodd" clip-rule="evenodd" d="M8.16922 0.50645C8.27443 0.514538 8.46056 0.541499 8.57926 0.56846C8.69795 0.595421 8.8625 0.646647 8.94343 0.681697C9.02436 0.719442 9.21858 0.821894 9.37504 0.910866C9.5315 0.999837 9.70145 1.09959 9.7527 1.12655C9.80396 1.15621 9.96851 1.25057 10.1169 1.33685C10.2652 1.42313 10.4891 1.55254 10.6159 1.62533C10.7427 1.69813 10.8641 1.76823 10.8857 1.78171C10.9073 1.79788 10.9558 1.82485 10.9936 1.84372C11.0314 1.86259 11.0907 1.89494 11.1285 1.91921C11.1662 1.94347 11.3011 2.02436 11.4306 2.09985C11.5628 2.17804 11.6734 2.24005 11.6815 2.24005C11.6896 2.24005 11.7273 2.26161 11.7678 2.28858C11.811 2.31823 11.9108 2.37485 11.9917 2.42068C12.0726 2.46652 12.1832 2.52853 12.2345 2.55819C12.2857 2.58784 12.4314 2.67412 12.5582 2.74691C12.685 2.81971 12.8954 2.94103 13.0303 3.01922C13.1651 3.09471 13.2919 3.16751 13.3135 3.18368C13.3351 3.19716 13.559 3.32658 13.8126 3.47217C14.0661 3.61775 14.2954 3.74986 14.3251 3.76604C14.3548 3.78222 14.5301 3.88467 14.7163 3.99251C14.9024 4.09766 15.1667 4.25134 15.5525 4.47781L15.539 12.2291L15.4797 12.4448C15.4446 12.5634 15.3637 12.7683 15.2962 12.9031C15.2315 13.0379 15.1182 13.2105 15.0481 13.2914C14.9752 13.3723 14.8808 13.4774 14.8376 13.5259C14.7945 13.5718 14.6785 13.6661 14.5814 13.7335C14.4843 13.7982 14.3575 13.8818 14.2981 13.9142C14.2388 13.9465 14.0203 14.0706 13.8126 14.1892C13.6048 14.3078 13.3621 14.4507 13.273 14.5073C13.184 14.5612 13.0491 14.6394 12.9763 14.6799C12.9008 14.7176 12.8226 14.7608 12.801 14.7742C12.7794 14.7877 12.6931 14.8389 12.6121 14.8875C12.5312 14.9333 12.4206 14.998 12.3694 15.0277C12.3181 15.0573 12.2264 15.1086 12.167 15.1409C12.1077 15.176 11.5601 15.4914 10.9531 15.8419C10.3435 16.1924 9.79317 16.5132 9.72573 16.551C9.65829 16.5887 9.38583 16.7451 9.11877 16.9015C8.85171 17.0551 8.57926 17.2142 8.51182 17.2493C8.44438 17.287 8.32029 17.3598 8.23397 17.4083C8.15034 17.4596 8.05593 17.5 8.02625 17.5C7.99658 17.5 7.90756 17.465 7.82933 17.4218C7.7538 17.3814 7.51101 17.2412 7.28981 17.1118C7.07131 16.985 6.88787 16.8799 6.87978 16.8799C6.87169 16.8799 6.80155 16.8395 6.72332 16.7909C6.64779 16.7397 6.51561 16.6642 6.43468 16.6184C6.35375 16.5752 6.18111 16.4755 6.04892 16.4C5.91944 16.3218 5.81154 16.2598 5.80614 16.2598C5.80344 16.2598 5.69015 16.1951 5.55797 16.1169C5.42309 16.036 5.26123 15.9417 5.19379 15.9039C5.12635 15.8662 5.02924 15.8122 4.97798 15.7826C4.92673 15.7529 4.50051 15.5076 4.03383 15.238C3.56715 14.9684 3.16521 14.7365 3.14363 14.723C3.12205 14.7095 3.00066 14.6394 2.87387 14.5666C2.74709 14.4911 2.60142 14.4076 2.55016 14.3779C2.49891 14.351 2.38831 14.2889 2.30738 14.2404C2.22645 14.1946 2.14013 14.1433 2.11855 14.1299C2.09697 14.1164 2.01604 14.0732 1.94321 14.0328C1.86767 13.9951 1.69233 13.8872 1.55206 13.7929C1.41178 13.7012 1.23374 13.561 1.16091 13.4855C1.08538 13.4073 0.972077 13.2698 0.907335 13.1781C0.842593 13.0865 0.750875 12.9274 0.699621 12.8223C0.651065 12.7171 0.586323 12.5311 0.556649 12.4044C0.5 12.1779 0.5 12.1159 0.5 4.46433L0.586323 4.4185C0.634879 4.39154 0.694226 4.35918 0.715807 4.34301C0.737387 4.32953 0.937008 4.2109 1.16091 4.08418C1.38211 3.95477 1.6195 3.81996 1.68694 3.78222C1.75438 3.74717 1.90544 3.6582 2.02413 3.5881C2.14283 3.5207 2.33166 3.41016 2.44226 3.34275C2.55286 3.27805 2.66886 3.21064 2.69853 3.19447C2.7282 3.17829 2.82531 3.12437 2.91434 3.07584C3.00336 3.02731 3.15982 2.93564 3.26502 2.87363C3.36753 2.81162 3.53208 2.71456 3.62919 2.66064C3.72631 2.60672 3.82342 2.5501 3.845 2.53662C3.86658 2.52314 4.10397 2.38564 4.37103 2.23196C4.63809 2.07828 4.93482 1.90573 5.03194 1.85181C5.12905 1.79788 5.22616 1.74127 5.24774 1.72779C5.26932 1.71161 5.51211 1.57141 5.78726 1.41234C6.06241 1.25597 6.36454 1.08072 6.46166 1.0241C6.55877 0.97018 6.75299 0.862336 6.89327 0.789541C7.03354 0.716746 7.23316 0.627775 7.33837 0.595421C7.44357 0.563068 7.62431 0.530715 7.74301 0.522627C7.8617 0.514538 7.96151 0.50645 7.9669 0.501058C7.9696 0.498362 8.06132 0.501058 8.16922 0.50645ZM7.50022 1.69274C7.4112 1.73587 7.23856 1.83293 7.11447 1.90573C6.93643 2.01088 6.89597 2.04323 6.92564 2.06749C6.94452 2.08637 7.25205 2.26701 7.60813 2.47191C7.96421 2.67681 8.528 3.00035 8.8625 3.19447C9.197 3.38589 9.51801 3.56923 9.57736 3.59888C9.63671 3.63124 9.69066 3.66089 9.69875 3.67168C9.70685 3.67977 10.0521 3.88197 10.4676 4.12193C10.883 4.36188 11.2553 4.5587 11.2553 4.5587L11.2957 4.58026L12.132 5.07904L12.9898 5.55625L13.0168 5.57513L13.1651 5.67758L13.2393 5.71802L13.3135 5.75846V9.15555L12.1805 9.80998V8.10947V6.45945C12.1805 6.45945 11.7624 6.21141 11.3982 6.00111C11.0341 5.79082 10.6834 5.58861 10.6159 5.55086C10.5485 5.51312 9.95502 5.17071 9.29412 4.78786C8.63321 4.40502 8.07481 4.08688 8.05323 4.07879C8.03165 4.0707 8.00737 4.05722 7.99928 4.04644C7.99118 4.03835 7.48674 3.74447 6.87978 3.39398C6.27013 3.04348 5.75489 2.74961 5.73331 2.73882C5.70903 2.73074 5.22346 2.99495 4.5194 3.40207C3.87467 3.77413 3.30279 4.10305 3.25153 4.13271C3.20028 4.16237 2.82801 4.37536 2.42877 4.60723C2.02683 4.83639 1.66805 5.04669 1.62489 5.07365L1.55206 5.12488C1.55206 11.5012 1.55745 11.9541 1.59252 12.0943C1.6168 12.1833 1.66805 12.3235 1.70852 12.4044C1.74898 12.4852 1.84879 12.6201 1.92972 12.7036C2.01334 12.7899 2.18869 12.9193 2.33436 13.0056C2.47463 13.0865 2.623 13.1674 2.66346 13.1835L2.73899 13.2132V5.74498C2.89545 5.6614 2.96019 5.62366 2.98177 5.61018C3.00336 5.5967 3.48892 5.3163 4.06081 4.98738L5.35565 4.24325L5.64429 4.10036L5.84641 4.19868L6.05702 4.31605L6.4158 4.52365L6.73141 4.74742C6.73141 4.74742 6.40501 4.97929 5.90326 5.27047C5.44467 5.53469 4.90245 5.85013 4.69474 5.96876C4.48703 6.08739 4.31168 6.19253 4.30359 6.20062C4.2955 6.20871 4.21996 6.25455 4.13364 6.29768C4.04732 6.34082 3.9529 6.40014 3.92323 6.4271C3.87198 6.47293 3.87198 6.55112 3.87737 10.1855L3.88546 13.898C4.55446 14.2862 4.76488 14.3968 4.78106 14.3995C4.79994 14.3995 4.81883 14.4103 4.82153 14.421C4.82692 14.4318 4.9564 14.5154 5.11286 14.6071C5.26932 14.6961 5.45006 14.8012 5.5175 14.8389C5.58494 14.8767 5.97879 15.1005 6.39422 15.3404C6.80964 15.5804 7.16842 15.7853 7.19 15.8015C7.21158 15.8149 7.35186 15.8958 7.50022 15.9821C7.64859 16.0684 7.78077 16.1439 7.79696 16.1493C7.81045 16.1546 7.85631 16.1816 7.89677 16.2086C7.93993 16.2382 7.99118 16.2598 8.01276 16.2598C8.03435 16.2598 8.40931 16.0549 8.84092 15.8068C9.27523 15.5561 9.89298 15.2029 10.2113 15.0196C10.5296 14.8362 10.7967 14.6772 10.8048 14.6691C10.8129 14.6583 10.8371 14.6448 10.8587 14.6367C10.8803 14.6286 11.4387 14.3105 12.0996 13.9277C12.7605 13.5448 13.3432 13.2105 13.3944 13.1808C13.4457 13.1512 13.5725 13.0784 13.6777 13.0164C13.7829 12.9571 13.9205 12.8708 13.9852 12.825C14.05 12.7791 14.1525 12.674 14.2145 12.5931C14.2765 12.5122 14.3602 12.3531 14.4006 12.2426C14.4708 12.0512 14.4762 12.0188 14.4681 11.6441L14.46 11.245C14.1039 11.4553 13.9987 11.5146 13.9933 11.5146C13.9906 11.5146 13.8449 11.5982 13.6696 11.7007C13.4969 11.8031 13.0438 12.0647 12.6661 12.283C12.2884 12.5014 11.9243 12.7117 11.8568 12.7495C11.7894 12.7872 11.73 12.825 11.7219 12.8357C11.7138 12.8438 11.6842 12.8627 11.6545 12.8735C11.6248 12.8843 11.2849 13.0757 10.8992 13.2995C10.5134 13.5232 10.1789 13.7201 10.1573 13.7389C10.1358 13.7551 10.0926 13.7794 10.0629 13.7902C10.0333 13.8009 9.78508 13.9411 9.50992 14.1002C9.23477 14.262 8.79237 14.5154 8.5253 14.6691C8.20429 14.8524 8.02086 14.9414 7.98579 14.9333C7.95611 14.9252 7.3006 14.5532 6.52909 14.1083L5.12635 13.2968V11.973L5.84661 12.3747C5.84661 12.3747 6.78806 12.9112 7.13605 13.1107C7.48404 13.3103 7.82663 13.5071 7.89677 13.5475L8.02625 13.6176C10.2733 12.3181 11.1689 11.8004 11.4657 11.6306C11.7624 11.458 12.1562 11.2316 12.3424 11.1237C12.5285 11.0159 13.0303 10.7247 13.4619 10.4766C13.8935 10.2286 14.2954 9.99404 14.3575 9.9563L14.4735 9.8835V5.1114C14.3791 5.05208 13.8045 4.72046 13.1382 4.33762C12.4692 3.95477 11.9054 3.62854 11.8838 3.61506C11.8622 3.60158 11.7948 3.56114 11.7354 3.52609C11.6761 3.49104 11.3416 3.29961 10.9936 3.09741C10.6456 2.8979 10.0548 2.55819 9.68526 2.3425C9.313 2.12681 8.95692 1.92191 8.88948 1.88416C8.82204 1.84641 8.72493 1.7898 8.67367 1.76014C8.62242 1.72779 8.51182 1.67656 8.43089 1.6469C8.34726 1.61455 8.1962 1.58489 8.0802 1.5795C7.9696 1.57411 7.82933 1.5795 7.76998 1.59028C7.71063 1.60376 7.58924 1.6496 7.50022 1.69274Z" fill="#A8AEBB"/>
</g>
</g>
<defs>
<filter id="filter0_i_1_1332" x="0.160824" y="0.5" width="15.3917" height="17.2713" filterUnits="userSpaceOnUse" color-interpolation-filters="sRGB">
<feFlood flood-opacity="0" result="BackgroundImageFix"/>
<feBlend mode="normal" in="SourceGraphic" in2="BackgroundImageFix" result="shape"/>
<feColorMatrix in="SourceAlpha" type="matrix" values="0 0 0 0 0 0 0 0 0 0 0 0 0 0 0 0 0 0 127 0" result="hardAlpha"/>
<feOffset dx="-0.339176" dy="0.27134"/>
<feGaussianBlur stdDeviation="0.362586"/>
<feComposite in2="hardAlpha" operator="arithmetic" k2="-1" k3="1"/>
<feColorMatrix type="matrix" values="0 0 0 0 1 0 0 0 0 1 0 0 0 0 1 0 0 0 1 0"/>
<feBlend mode="normal" in2="shape" result="effect1_innerShadow_1_1332"/>
</filter>
<clipPath id="clip0_1_1332">
<rect width="15" height="17" fill="white" transform="translate(0.5 0.5)"/>
</clipPath>
</defs>
</svg>
